<svg xmlns="http://www.w3.org/2000/svg" xmlns:xlink="http://www.w3.org/1999/xlink" width="1600" height="780" viewBox="0 0 1600 780"><rect width="100%" height="100%" fill="#DDDDDD"/><path d="M380.61 441.38L405.44 441.38L405.44 459.05L329.04 459.05L329.04 441.38L357.02 441.38L357.02 360.87Q357.02 356.10 357.31 351.04L357.31 351.04L337.45 367.65Q335.73 368.99 334.06 369.32Q332.38 369.66 330.90 369.37Q329.42 369.09 328.28 368.37Q327.13 367.65 326.56 366.79L326.56 366.79L319.11 356.58L361.23 320.76L380.61 320.76L380.61 441.38ZM508.20 320.95L467.23 371.09L462.46 377.01Q466.47 375.01 471.10 373.91Q475.73 372.81 481.08 372.81L481.08 372.81Q488.91 372.81 496.31 375.39Q503.71 377.97 509.35 383.17Q514.98 388.38 518.42 396.11Q521.86 403.85 521.86 414.16L521.86 414.16Q521.86 423.81 518.32 432.26Q514.79 440.71 508.39 447.01Q501.99 453.32 492.97 456.95Q483.94 460.57 473.06 460.57L473.06 460.57Q461.98 460.57 453.19 457.04Q444.41 453.51 438.20 447.16Q431.99 440.81 428.70 431.88Q425.40 422.95 425.40 412.06L425.40 412.06Q425.40 402.32 429.36 392.05Q433.33 381.79 441.64 370.71L441.64 370.71L474.58 326.49Q476.30 324.20 479.60 322.58Q482.89 320.95 487.19 320.95L487.19 320.95L508.20 320.95ZM472.58 441.28L472.58 441.28Q478.21 441.28 482.94 439.37Q487.67 437.46 491.06 434.03Q494.45 430.59 496.36 425.96Q498.27 421.32 498.27 415.88L498.27 415.88Q498.27 409.96 496.45 405.23Q494.64 400.51 491.30 397.21Q487.95 393.92 483.27 392.20Q478.59 390.48 472.96 390.48L472.96 390.48Q467.33 390.48 462.74 392.39Q458.16 394.30 454.91 397.69Q451.66 401.08 449.85 405.71Q448.03 410.34 448.03 415.69L448.03 415.69Q448.03 421.42 449.61 426.15Q451.19 430.87 454.29 434.22Q457.39 437.56 461.98 439.42Q466.56 441.28 472.58 441.28ZM634.16 390.00L634.16 390.00Q634.16 408.05 630.30 421.37Q626.43 434.69 619.60 443.38Q612.77 452.08 603.46 456.32Q594.15 460.57 583.36 460.57L583.36 460.57Q572.57 460.57 563.35 456.32Q554.14 452.08 547.35 443.38Q540.57 434.69 536.75 421.37Q532.93 408.05 532.93 390.00L532.93 390.00Q532.93 371.86 536.75 358.58Q540.57 345.31 547.35 336.62Q554.14 327.93 563.35 323.68Q572.57 319.43 583.36 319.43L583.36 319.43Q594.15 319.43 603.46 323.68Q612.77 327.93 619.60 336.62Q626.43 345.31 630.30 358.58Q634.16 371.86 634.16 390.00ZM609.81 390.00L609.81 390.00Q609.81 375.01 607.62 365.17Q605.42 355.33 601.74 349.51Q598.07 343.68 593.29 341.34Q588.52 339.00 583.36 339.00L583.36 339.00Q578.30 339.00 573.57 341.34Q568.84 343.68 565.21 349.51Q561.58 355.33 559.44 365.17Q557.29 375.01 557.29 390.00L557.29 390.00Q557.29 404.99 559.44 414.83Q561.58 424.67 565.21 430.49Q568.84 436.32 573.57 438.66Q578.30 441.00 583.36 441.00L583.36 441.00Q588.52 441.00 593.29 438.66Q598.07 436.32 601.74 430.49Q605.42 424.67 607.62 414.83Q609.81 404.99 609.81 390.00ZM744.94 390.00L744.94 390.00Q744.94 408.05 741.08 421.37Q737.21 434.69 730.38 443.38Q723.55 452.08 714.24 456.32Q704.93 460.57 694.14 460.57L694.14 460.57Q683.35 460.57 674.13 456.32Q664.92 452.08 658.13 443.38Q651.35 434.69 647.53 421.37Q643.71 408.05 643.71 390.00L643.71 390.00Q643.71 371.86 647.53 358.58Q651.35 345.31 658.13 336.62Q664.92 327.93 674.13 323.68Q683.35 319.43 694.14 319.43L694.14 319.43Q704.93 319.43 714.24 323.68Q723.55 327.93 730.38 336.62Q737.21 345.31 741.08 358.58Q744.94 371.86 744.94 390.00ZM720.59 390.00L720.59 390.00Q720.59 375.01 718.40 365.17Q716.20 355.33 712.52 349.51Q708.85 343.68 704.07 341.34Q699.30 339.00 694.14 339.00L694.14 339.00Q689.08 339.00 684.35 341.34Q679.62 343.68 675.99 349.51Q672.36 355.33 670.22 365.17Q668.07 375.01 668.07 390.00L668.07 390.00Q668.07 404.99 670.22 414.83Q672.36 424.67 675.99 430.49Q679.62 436.32 684.35 438.66Q689.08 441.00 694.14 441.00L694.14 441.00Q699.30 441.00 704.07 438.66Q708.85 436.32 712.52 430.49Q716.20 424.67 718.40 414.83Q720.59 404.99 720.59 390.00ZM896.60 427.44L884.09 439.76L851.71 407.38L819.05 439.95L806.54 427.63L839.20 394.87L808.07 363.74L820.48 351.32L851.62 382.46L882.56 351.51L895.17 363.93L864.13 394.97L896.60 427.44ZM962.21 320.95L1057.61 320.95L1057.61 331.17Q1057.61 335.76 1056.66 338.57Q1055.70 341.39 1054.75 343.30L1054.75 343.30L1002.41 451.02Q1000.79 454.37 997.83 456.71Q994.87 459.05 989.90 459.05L989.90 459.05L972.81 459.05L1026.19 353.52Q1028.01 350.27 1029.77 347.55Q1031.54 344.83 1033.74 342.35L1033.74 342.35L967.65 342.35Q965.45 342.35 963.83 340.72Q962.21 339.10 962.21 336.90L962.21 336.90L962.21 320.95ZM1119.50 442.14L1119.50 442.14Q1125.32 442.14 1129.71 440.47Q1134.11 438.80 1137.12 435.84Q1140.12 432.88 1141.65 428.77Q1143.18 424.67 1143.18 419.89L1143.18 419.89Q1143.18 408.53 1136.88 402.70Q1130.57 396.88 1119.50 396.88L1119.50 396.88Q1108.42 396.88 1102.11 402.70Q1095.81 408.53 1095.81 419.89L1095.81 419.89Q1095.81 424.67 1097.34 428.77Q1098.87 432.88 1101.88 435.84Q1104.88 438.80 1109.28 440.47Q1113.67 442.14 1119.50 442.14ZM1119.50 337.19L1119.50 337.19Q1114.24 337.19 1110.42 338.81Q1106.60 340.44 1104.07 343.16Q1101.54 345.88 1100.35 349.41Q1099.15 352.95 1099.15 356.86L1099.15 356.86Q1099.15 360.97 1100.16 364.84Q1101.16 368.70 1103.55 371.71Q1105.93 374.72 1109.85 376.53Q1113.77 378.35 1119.50 378.35L1119.50 378.35Q1125.23 378.35 1129.14 376.53Q1133.06 374.72 1135.44 371.71Q1137.83 368.70 1138.83 364.84Q1139.84 360.97 1139.84 356.86L1139.84 356.86Q1139.84 352.95 1138.60 349.41Q1137.35 345.88 1134.87 343.16Q1132.39 340.44 1128.57 338.81Q1124.75 337.19 1119.50 337.19ZM1142.80 387.04L1142.80 387.04Q1155.40 391.15 1161.42 399.60Q1167.44 408.05 1167.44 420.27L1167.44 420.27Q1167.44 429.44 1163.95 436.89Q1160.46 444.34 1154.16 449.59Q1147.86 454.84 1139.03 457.71Q1130.19 460.57 1119.50 460.57L1119.50 460.57Q1108.80 460.57 1099.97 457.71Q1091.13 454.84 1084.83 449.59Q1078.53 444.34 1075.04 436.89Q1071.55 429.44 1071.55 420.27L1071.55 420.27Q1071.55 408.05 1077.57 399.60Q1083.59 391.15 1096.19 387.04L1096.19 387.04Q1086.17 382.84 1081.15 375.10Q1076.14 367.37 1076.14 356.48L1076.14 356.48Q1076.14 348.65 1079.34 341.87Q1082.54 335.09 1088.27 330.07Q1094.00 325.06 1101.97 322.24Q1109.95 319.43 1119.50 319.43L1119.50 319.43Q1129.05 319.43 1137.02 322.24Q1144.99 325.06 1150.72 330.07Q1156.45 335.09 1159.65 341.87Q1162.85 348.65 1162.85 356.48L1162.85 356.48Q1162.85 367.37 1157.84 375.10Q1152.82 382.84 1142.80 387.04ZM1280.89 390.00L1280.89 390.00Q1280.89 408.05 1277.02 421.37Q1273.15 434.69 1266.33 443.38Q1259.50 452.08 1250.19 456.32Q1240.88 460.57 1230.08 460.57L1230.08 460.57Q1219.29 460.57 1210.08 456.32Q1200.86 452.08 1194.08 443.38Q1187.30 434.69 1183.48 421.37Q1179.66 408.05 1179.66 390.00L1179.66 390.00Q1179.66 371.86 1183.48 358.58Q1187.30 345.31 1194.08 336.62Q1200.86 327.93 1210.08 323.68Q1219.29 319.43 1230.08 319.43L1230.08 319.43Q1240.88 319.43 1250.19 323.68Q1259.50 327.93 1266.33 336.62Q1273.15 345.31 1277.02 358.58Q1280.89 371.86 1280.89 390.00ZM1256.54 390.00L1256.54 390.00Q1256.54 375.01 1254.34 365.17Q1252.14 355.33 1248.47 349.51Q1244.79 343.68 1240.02 341.34Q1235.24 339.00 1230.08 339.00L1230.08 339.00Q1225.02 339.00 1220.30 341.34Q1215.57 343.68 1211.94 349.51Q1208.31 355.33 1206.16 365.17Q1204.01 375.01 1204.01 390.00L1204.01 390.00Q1204.01 404.99 1206.16 414.83Q1208.31 424.67 1211.94 430.49Q1215.57 436.32 1220.30 438.66Q1225.02 441.00 1230.08 441.00L1230.08 441.00Q1235.24 441.00 1240.02 438.66Q1244.79 436.32 1248.47 430.49Q1252.14 424.67 1254.34 414.83Q1256.54 404.99 1256.54 390.00Z" fill="#999999"/></svg>